#N canvas 984 613 936 466 12;
#X obj 45 37 loadbang;
#X obj 45 61 metro 1000;
#X obj 45 94 tgl 19 0 empty empty empty 0 -10 0 12 -262144 -1 -1 0
1;
#X obj 54 171 s ldsp_flashlight;
#X floatatom 45 118 5 0 0 0 - - -;
#X obj 55 146 s ldsp_backlight;
#X obj 45 233 s ldsp_vibration;
#X obj 45 204 * 500;
#X text 185 145 turn on/off lcd backlight;
#X text 188 170 turn on/off flashlight;
#X text 184 234 vibrate phone for x milliseconds;
#X connect 0 0 1 0;
#X connect 1 0 2 0;
#X connect 2 0 4 0;
#X connect 4 0 3 0;
#X connect 4 0 5 0;
#X connect 4 0 7 0;
#X connect 7 0 6 0;
