#N canvas 1037 25 1512 560 12;
#X obj 34 211 print anyTouch;
#X obj 34 181 r ldsp_mt_anyTouch;
#X obj 30 339 r ldsp_touch_0;
#X obj 40 82 s ldsp_enable_multitouch;
#X obj 40 42 loadbang;
#X obj 428 192 s ldsp_get_mt_info;
#X obj 428 153 loadbang;
#X obj 430 240 r ldsp_mt_info;
#X obj 430 271 unpack f f f f f;
#X obj 428 302 pack f f;
#X obj 597 331 print touchSlots;
#X obj 428 332 print screenResolution;
#X obj 728 330 print touchAxisMax;
#X obj 873 330 print touchWidthMax;
#X obj 30 363 unpack f f f f;
#X obj 30 409 print x_0;
#X obj 105 409 print y_0;
#X obj 180 409 print id_0;
#X obj 263 408 print pressure_0;
#X obj 31 473 r ldsp_touch_1;
#X obj 31 501 print list_touch_1;
#X obj 180 472 r ldsp_touch_2;
#X obj 180 500 print list_touch_2;
#X text 123 42 send a bang to this object to enable multitouch!;
#X text 568 192 send a bang to ldsp_get_met_info;
#X text 562 238 receive 5 element list of multitouch metadata;
#X text 27 254 ldsp_touch_x list format \; 0: x pos of touch \; 1: y pos of touch \; 2: id of touch \; 3: pressure of touch \;;
#X text 32 141 1 when any touch has started \; 0 when any touch has stopped;
#X connect 1 0 0 0;
#X connect 2 0 14 0;
#X connect 4 0 3 0;
#X connect 6 0 5 0;
#X connect 7 0 8 0;
#X connect 8 0 9 0;
#X connect 8 1 9 1;
#X connect 8 2 10 0;
#X connect 8 3 12 0;
#X connect 8 4 13 0;
#X connect 9 0 11 0;
#X connect 14 0 15 0;
#X connect 14 1 16 0;
#X connect 14 2 17 0;
#X connect 14 3 18 0;
#X connect 19 0 20 0;
#X connect 21 0 22 0;
