#N canvas 274 104 785 560 12;
#X obj 270 58 adc~ 1;
#X obj 271 392 dac~;
#X obj 270 92 *~ 0.5;
#X obj 271 131 lop~ 2000;
#X obj 271 163 lop~ 2000;
#X obj 203 184 lop~ 800;
#X obj 203 216 lop~ 800;
#X obj 64 299 -~;
#X text 361 150 Second order low pass;
#X text 282 193 Second order hi pass \, obtained by subtraction;
#X connect 0 0 2 0;
#X connect 2 0 3 0;
#X connect 2 0 5 0;
#X connect 2 0 7 0;
#X connect 3 0 4 0;
#X connect 4 0 1 0;
#X connect 4 0 1 1;
#X connect 5 0 6 0;
#X connect 6 0 7 1;
#X connect 7 0 1 0;
#X connect 7 0 1 1;
