#N canvas 227 107 1440 726 12;
#X obj 270 365 osc~ 220;
#X obj 401 156 abs~;
#X obj 402 115 lop~ 100;
#X obj 272 115 lop~ 100;
#X obj 271 473 dac~;
#X obj 273 157 abs~;
#X obj 400 201 clip~ 0 9.8;
#X obj 272 200 clip~ 0 9.8;
#X obj 401 245 /~ 9.8;
#X obj 272 243 /~ 9.8;
#X obj 270 421 *~;
#X obj 272 279 *~ 660;
#X obj 271 318 +~ 220;
#X text 11 113 smoothing low pass;
#X text 13 157 ignore direction;
#X text 13 198 clip to 1 g;
#X text 15 242 normalize;
#X text 18 297 map to [220 \, 880] Hz;
#X text 312 419 y accel controls osc amplitude;
#X text 14 361 x accel controls osc frequency;
#X text 11 68 read accelerometer x and y channels;
#X text 453 298 map to [0.01 \, 0.7];
#X obj 401 280 *~ 0.69;
#X obj 400 318 +~ 0.01;
#X text 637 75 *** Audio Channels ***;
#X text 640 145 *** Sensor channels ***;
#X text 638 57 ADC channel overview, f 22;
#X text 639 92 ADC 1: Audio in L / Mono;
#X text 639 109 ADC 2: Audio in R;
#X text 641 161 ADC 9: accel_x ADC 10: accel_y ADC 11: accel_z, f 17;
#X text 641 207 ADC 12: mag_x ADC 13: mag_y ADC 14: mag_z, f 13;
#X text 641 253 ADC 15: gyro_x ADC 16: gyro_y ADC 17: gyro_z, f 15;
#X text 641 299 ADC 18: light;
#X text 641 314 ADC 19: proximity;
#X obj 271 73 adc~ 9;
#X obj 402 73 adc~ 10;
#X text 639 127 ADC 3-8: Additional audio in channels reservered for when using cards with multiple inputs, f 98;
#X connect 0 0 10 0;
#X connect 1 0 6 0;
#X connect 2 0 1 0;
#X connect 3 0 5 0;
#X connect 5 0 7 0;
#X connect 6 0 8 0;
#X connect 7 0 9 0;
#X connect 8 0 22 0;
#X connect 9 0 11 0;
#X connect 10 0 4 0;
#X connect 10 0 4 1;
#X connect 11 0 12 0;
#X connect 12 0 0 0;
#X connect 22 0 23 0;
#X connect 23 0 10 1;
#X connect 34 0 3 0;
#X connect 35 0 2 0;
