#N canvas 2429 61 1144 818 12;
#X obj 124 455 r ldsp_touch_0;
#X obj 39 76 s ldsp_enable_multitouch;
#X obj 39 42 loadbang;
#X obj 41 162 s ldsp_get_mt_info;
#X obj 41 133 loadbang;
#X obj 42 194 r ldsp_mt_info;
#X obj 64 256 pack f f;
#X obj 163 255 print touchSlots;
#X obj 124 479 unpack f f f f;
#X obj 198 505 print y_0;
#X obj 272 503 print id_0;
#X obj 351 503 print pressure_0;
#X obj 617 470 r ldsp_touch_1;
#X obj 617 498 print list_touch_1;
#X obj 618 526 r ldsp_touch_2;
#X obj 618 554 print list_touch_2;
#X text 178 162 send a bang to ldsp_get_met_info;
#X text 149 193 receive 5 element list of multitouch metadata;
#X obj 24 620 osc~ 220;
#X obj 25 803 dac~;
#X obj 24 541 /;
#X obj 124 505 print x_0;
#X obj 24 567 * 220;
#X obj 24 595 + 220;
#X obj 64 286 print screenResolution_x_y;
#X obj 25 741 *~;
#X floatatom 44 677 5 0 0 0 - - - 0;
#X obj 44 699 lop~ 100;
#X text 73 539 map x touch reading between 0-1;
#X text 79 566 map between 0-220 HZ;
#X text 79 593 map between 220-440 HZ;
#X obj 618 638 r ldsp_mt_anyTouch;
#X obj 116 653 != -1;
#X obj 42 225 unpack f f f;
#X obj 483 126 loadbang;
#X msg 483 151 2;
#X obj 483 182 s ldsp_screen;
#X text 171 651 if touch id = -1 \, then touch not detected in this
slot;
#X text 122 698 smooth out readings to sudden waveform transitions
;
#X text 123 42 send a bang to this object to tell LDSP to send touch
data to Pure Data!;
#X text 617 676 returns: 1 when at least one touch detected 0 when
no touch detected BUT not avaialable on all phones;
#X text 763 469 we can receive multiple simultaneous touches! the number
of touches depends on the phone;
#X text 588 184 screen control: 0: screen off 1: screen on 2: screen
on and kept on, f 24;
#X text 120 360 get nth touch: ldsp_touch_n list format 0: x pos of
touch 1: y pos of touch 2: id of touch 3: pressure of touch, f 31
;
#X connect 0 0 8 0;
#X connect 2 0 1 0;
#X connect 4 0 3 0;
#X connect 5 0 33 0;
#X connect 6 0 24 0;
#X connect 8 0 20 0;
#X connect 8 0 21 0;
#X connect 8 1 9 0;
#X connect 8 2 10 0;
#X connect 8 2 32 0;
#X connect 8 3 11 0;
#X connect 12 0 13 0;
#X connect 14 0 15 0;
#X connect 18 0 25 0;
#X connect 20 0 22 0;
#X connect 22 0 23 0;
#X connect 23 0 18 0;
#X connect 25 0 19 0;
#X connect 25 0 19 1;
#X connect 26 0 27 0;
#X connect 27 0 25 1;
#X connect 32 0 26 0;
#X connect 33 0 6 0;
#X connect 33 0 20 1;
#X connect 33 1 6 1;
#X connect 33 2 7 0;
#X connect 34 0 35 0;
#X connect 35 0 36 0;
