#N canvas 36 38 1440 872 12;
#X obj 153 121 loadbang;
#X obj 153 221 bng 15 250 50 0 empty empty empty 17 7 0 10 #fcfcfc #000000 #000000;
#X obj 56 153 adc~ 1;
#X obj 434 836 dac~ 1 2;
#X msg 494 228 4 0 4 0;
#X floatatom 495 150 5 0 0 0 - - - 0;
#X text 638 384 root note;
#X floatatom 316 264 5 0 0 0 - - - 0;
#X floatatom 315 306 5 0 0 0 - - - 0;
#X obj 317 244 random 1000;
#X obj 316 283 expr $f1/1000.0;
#X obj 154 193 metro 500;
#X obj 121 122 bng 15 250 50 0 empty empty empty 17 7 0 10 #fcfcfc #000000 #000000;
#X text 960 321 major scale;
#X obj 506 829 sigmund~;
#X floatatom 541 282 5 0 0 0 - - - 0;
#X floatatom 533 354 5 0 0 0 - - - 0;
#X obj 533 323 expr int($f1 * 8);
#X floatatom 533 412 5 0 0 0 - - - 0;
#X obj 121 159 s launch;
#X obj 1045 286 r launch;
#X obj 103 34 bng 15 250 50 0 empty empty empty 17 7 0 10 #fcfcfc #000000 #000000;
#X obj 104 3 r launch;
#X msg 1045 313 \; major 0 2 4 5 7 9 11 12;
#X obj 532 452 +;
#X floatatom 710 410 5 0 0 0 - - - 0;
#X floatatom 532 486 5 0 0 0 - - - 0;
#X obj 532 515 mtof;
#X obj 774 553 snapshot~;
#X floatatom 531 550 5 0 0 0 - - - 0;
#X obj 531 589 sig~;
#X obj 1049 358 r launch;
#X text 964 393 minor scale;
#X msg 1049 385 \; minor 0 2 3 5 7 9 10 12;
#X obj 533 383 tabread minor;
#X obj 1118 358 array define minor;
#X obj 1113 286 array define major;
#X msg 881 199 set minor;
#X msg 977 199 set major;
#X floatatom 229 45 5 0 0 0 - - - 0;
#X obj 230 66 expr 1000/($f1/60);
#X floatatom 229 89 5 0 0 0 - - - 0;
#X text 409 3 steps;
#X text 225 1 tempo;
#X floatatom 412 48 5 0 0 0 - - - 0;
#X floatatom 341 124 5 0 0 0 - - - 0;
#X obj 342 101 / 1;
#X obj 412 69 t b;
#X msg 710 385 55, f 4;
#X text 231 464 root note;
#X floatatom 126 434 5 0 0 0 - - - 0;
#X obj 126 403 expr int($f1 * 8);
#X floatatom 126 492 5 0 0 0 - - - 0;
#X obj 125 532 +;
#X floatatom 303 490 5 0 0 0 - - - 0;
#X floatatom 125 566 5 0 0 0 - - - 0;
#X obj 125 595 mtof;
#X obj 367 633 snapshot~;
#X floatatom 124 630 5 0 0 0 - - - 0;
#X obj 124 669 sig~;
#X obj 126 463 tabread minor;
#X floatatom 124 301 5 0 0 0 - - - 0;
#X floatatom 123 343 5 0 0 0 - - - 0;
#X obj 124 273 random 1000;
#X obj 124 320 expr $f1/1000.0;
#X obj 124 705 phasor~;
#X obj 464 754 *~ 0.1;
#X obj 17 231 random 2;
#X obj 0 260 expr if($f1==1 \, 1 \, 0);
#X floatatom 22 297 5 0 0 0 - - - 0;
#X obj 129 767 *~;
#X obj 531 625 phasor~;
#X floatatom 798 864 5 0 200 0 - - - 0;
#X obj 805 1034 bob~;
#X obj 798 886 / 25;
#X floatatom 681 850 5 0 150 0 - - - 0;
#X obj 681 872 mtof;
#X obj 682 917 pack 0 50;
#X obj 682 942 line~;
#X floatatom 681 895 7 0 0 0 - - - 0;
#X text 809 759 "resonance";
#X text 808 776 (>4 to oscillate);
#X text 846 882 scaled to 0-8;
#X text 845 864 0-200 control;
#X text 653 757 resonant or cutoff frequency, f 16;
#X text 690 731 ----- filter parameters ----;
#X msg 798 838 10;
#X obj 797 914 line~;
#X msg 681 826 69;
#X obj 676 693 expr $f1/(5);
#X obj 681 801 r launch;
#X obj 798 813 r launch;
#X obj 906 1036 bob~;
#X floatatom 970 587 5 0 150 0 - - - 0;
#X obj 970 609 mtof;
#X obj 971 654 pack 0 50;
#X obj 972 680 line~;
#X floatatom 970 632 7 0 0 0 - - - 0;
#X msg 970 563 69;
#X obj 970 538 r launch;
#X obj 610 635 expr $f1/1000.0 * 50+50;
#X msg 305 449 31, f 5;
#X msg 229 22 120;
#X msg 412 25 4;
#X obj 389 752 *~ 0.7;
#X connect 0 0 11 0;
#X connect 0 0 19 0;
#X connect 1 0 9 0;
#X connect 1 0 63 0;
#X connect 1 0 67 0;
#X connect 7 0 10 0;
#X connect 8 0 17 0;
#X connect 9 0 7 0;
#X connect 10 0 8 0;
#X connect 11 0 1 0;
#X connect 12 0 11 0;
#X connect 12 0 19 0;
#X connect 16 0 34 0;
#X connect 17 0 16 0;
#X connect 18 0 24 0;
#X connect 20 0 23 0;
#X connect 20 0 48 0;
#X connect 20 0 101 0;
#X connect 22 0 21 0;
#X connect 22 0 102 0;
#X connect 22 0 103 0;
#X connect 24 0 26 0;
#X connect 25 0 24 1;
#X connect 26 0 27 0;
#X connect 27 0 29 0;
#X connect 29 0 30 0;
#X connect 30 0 71 0;
#X connect 31 0 33 0;
#X connect 34 0 18 0;
#X connect 37 0 34 0;
#X connect 37 0 60 0;
#X connect 38 0 34 0;
#X connect 38 0 60 0;
#X connect 39 0 40 0;
#X connect 40 0 41 0;
#X connect 41 0 46 0;
#X connect 44 0 46 1;
#X connect 44 0 47 0;
#X connect 45 0 11 1;
#X connect 46 0 45 0;
#X connect 47 0 46 0;
#X connect 48 0 25 0;
#X connect 50 0 60 0;
#X connect 51 0 50 0;
#X connect 52 0 53 0;
#X connect 53 0 55 0;
#X connect 54 0 53 1;
#X connect 55 0 56 0;
#X connect 56 0 58 0;
#X connect 58 0 59 0;
#X connect 59 0 65 0;
#X connect 60 0 52 0;
#X connect 61 0 64 0;
#X connect 61 0 100 0;
#X connect 62 0 51 0;
#X connect 63 0 61 0;
#X connect 64 0 62 0;
#X connect 65 0 70 0;
#X connect 66 0 92 0;
#X connect 67 0 68 0;
#X connect 68 0 69 0;
#X connect 69 0 70 1;
#X connect 70 0 104 0;
#X connect 71 0 66 0;
#X connect 72 0 74 0;
#X connect 73 0 3 0;
#X connect 74 0 87 0;
#X connect 75 0 76 0;
#X connect 76 0 79 0;
#X connect 77 0 78 0;
#X connect 78 0 73 1;
#X connect 79 0 77 0;
#X connect 86 0 72 0;
#X connect 87 0 73 2;
#X connect 87 0 92 2;
#X connect 88 0 75 0;
#X connect 89 0 72 0;
#X connect 90 0 88 0;
#X connect 91 0 86 0;
#X connect 92 0 3 1;
#X connect 93 0 94 0;
#X connect 94 0 97 0;
#X connect 95 0 96 0;
#X connect 96 0 92 1;
#X connect 97 0 95 0;
#X connect 98 0 93 0;
#X connect 99 0 98 0;
#X connect 100 0 89 0;
#X connect 100 0 93 0;
#X connect 100 0 75 0;
#X connect 101 0 54 0;
#X connect 102 0 39 0;
#X connect 103 0 44 0;
#X connect 104 0 73 0;
