#N canvas 1411 26 1128 524 12;
#X obj 370 97 loadbang;
#X obj 242 188 snapshot~;
#X obj 37 62 adc~ 1 2;
#X obj 242 246 * 100;
#X obj 241 73 adc~ 4;
#X obj 371 134 metro 10;
#X obj 242 319 osc~ 220;
#X obj 242 278 abs;
#X text 574 36 ADC channel overview ----------------- *** Audio Channels *** \; ADC 1: Analog in L / Mono \; ADC 2: Analog in R \; *** Sensor channels *** \; ADC 3: accel_x \; ADC 4: accel_y \; ADC 5: accel_z \; ADC 6: mag_x \; ADC 7: mag_y \; ADC 8: mag_z \; ADC 9: gyro_x \; ADC 10: gyro_y \; ADC 11: gyro_z \; ADC 12: light \; ADC 13: proximity \;;
#X text 717 266;
#X text 717 251;
#X text 718 232;
#X obj 168 73 adc~ 3;
#X obj 148 371 *~;
#X obj 166 188 *~ 0.1;
#X obj 166 235 abs~;
#X obj 168 115 lop~ 100;
#X obj 242 115 lop~ 100;
#X obj 224 374 *~;
#X obj 190 405 +~;
#X obj 190 453 dac~;
#X obj 190 429 *~ 0.5;
#X connect 0 0 5 0;
#X connect 1 0 3 0;
#X connect 2 0 13 0;
#X connect 2 0 20 0;
#X connect 3 0 7 0;
#X connect 4 0 17 0;
#X connect 5 0 1 0;
#X connect 6 0 18 1;
#X connect 7 0 6 0;
#X connect 12 0 16 0;
#X connect 13 0 19 0;
#X connect 14 0 15 0;
#X connect 15 0 13 1;
#X connect 15 0 18 0;
#X connect 16 0 14 0;
#X connect 17 0 1 0;
#X connect 18 0 19 1;
#X connect 19 0 21 0;
#X connect 21 0 20 0;
#X connect 21 0 20 1;
