#N canvas 1920 159 1920 993 12;
#X obj 270 365 osc~ 220;
#X text 618 66 ADC channel overview ----------------- *** Audio Channels
*** \; ADC 1: Analog in L / Mono \; ADC 2: Analog in R \; *** Sensor
channels *** \; ADC 3: accel_x \; ADC 4: accel_y \; ADC 5: accel_z
\; ADC 6: mag_x \; ADC 7: mag_y \; ADC 8: mag_z \; ADC 9: gyro_x \;
ADC 10: gyro_y \; ADC 11: gyro_z \; ADC 12: light \; ADC 13: proximity
\;;
#X obj 401 156 abs~;
#X obj 402 115 lop~ 100;
#X obj 272 115 lop~ 100;
#X obj 271 473 dac~;
#X obj 273 157 abs~;
#X obj 400 201 clip~ 0 9.8;
#X obj 272 200 clip~ 0 9.8;
#X obj 401 245 /~ 9.8;
#X obj 272 243 /~ 9.8;
#X obj 402 73 adc~ 4;
#X obj 271 73 adc~ 3;
#X obj 270 421 *~;
#X obj 272 279 *~ 660;
#X obj 271 318 +~ 220;
#X text 11 113 smoothing low pass;
#X text 11 68 read accelerometer x and ychannels;
#X text 13 157 ignore direction;
#X text 13 198 clip to 1 g;
#X text 15 242 normalize;
#X text 18 297 map to [220 \, 880] Hz;
#X text 312 419 y accel controls osc amplitude;
#X text 14 361 x accel controls osc frequency;
#X text 453 298 map to [0.1 \, 0.7];
#X obj 400 318 +~ 0.1;
#X obj 401 280 *~ 0.6;
#X connect 0 0 13 0;
#X connect 2 0 7 0;
#X connect 3 0 2 0;
#X connect 4 0 6 0;
#X connect 6 0 8 0;
#X connect 7 0 9 0;
#X connect 8 0 10 0;
#X connect 9 0 26 0;
#X connect 10 0 14 0;
#X connect 11 0 3 0;
#X connect 12 0 4 0;
#X connect 13 0 5 0;
#X connect 13 0 5 1;
#X connect 14 0 15 0;
#X connect 15 0 0 0;
#X connect 25 0 13 1;
#X connect 26 0 25 0;
