#N canvas 2088 126 1440 718 12;
#X obj 126 79 osc~ 440;
#X obj 127 141 *~ 0.3;
#X obj 210 140 *~ 0.3;
#X obj 209 78 osc~ 442;
#X obj 654 12 loadbang;
#X obj 654 54 s ldsp_enable_buttons;
#X obj 343 77 r ldsp_btn_power;
#X obj 475 78 r ldsp_btn_volDown;
#X obj 343 173 sig~;
#X obj 127 210 *~;
#X obj 343 209 *~ 0.5;
#X obj 127 253 dac~ 1 2 27 28 29 30;
#X obj 343 113 - 1;
#X obj 343 138 * -1;
#X obj 210 210 *~;
#X obj 475 173 sig~;
#X obj 475 209 *~ 0.5;
#X obj 475 113 - 1;
#X obj 475 138 * -1;
#X text 355 49 1 = pressed \, 0 = not pressed;
#X text 523 127 invert;
#X text 526 173 map to amp;
#X text 531 207 map lower down to visualize better in scope!;
#X obj 401 112 loadbang;
#X obj 401 137 1;
#X text 104 304 in this patch we plot: left audio output \, right audio output \, power button state (inverted \, with 0 = pressed) and voleum down state (inverted), f 145;
#X text 104 286 signals going out to channels 27 \, 28 \, 29 and 30 are visualized on the scope!, f 78;
#X text 105 323 to open the scope \, launch a browser and go to the ip address and port that the ldsp shows on the console, f 108;
#X connect 0 0 1 0;
#X connect 1 0 9 0;
#X connect 2 0 14 0;
#X connect 3 0 2 0;
#X connect 4 0 5 0;
#X connect 6 0 12 0;
#X connect 7 0 17 0;
#X connect 8 0 9 1;
#X connect 8 0 10 0;
#X connect 9 0 11 0;
#X connect 9 0 11 2;
#X connect 10 0 11 4;
#X connect 12 0 13 0;
#X connect 13 0 8 0;
#X connect 14 0 11 1;
#X connect 14 0 11 3;
#X connect 15 0 16 0;
#X connect 15 0 14 1;
#X connect 16 0 11 5;
#X connect 17 0 18 0;
#X connect 18 0 15 0;
#X connect 23 0 24 0;
#X connect 24 0 8 0;
#X connect 24 0 15 0;
