#N canvas 326 126 913 583 12;
#X obj 83 154 adc~ 1;
#X obj 292 475 dac~;
#X obj 84 333 *~ 0.5;
#X obj 497 192 *~ 0.6;
#X obj 642 191 *~ 0.5;
#X obj 94 270 delwrite~ buff_l 2000;
#X obj 498 151 delread~ buff_l 200;
#X obj 642 151 delread~ buff_r 300;
#X obj 256 270 delwrite~ buff_r 2000;
#X text 341 200 feedbacks;
#X text 371 376 wet;
#X text 192 381 dry;
#X connect 0 0 2 0;
#X connect 0 0 5 0;
#X connect 0 0 8 0;
#X connect 2 0 1 0;
#X connect 2 0 1 1;
#X connect 3 0 5 0;
#X connect 4 0 8 0;
#X connect 6 0 1 0;
#X connect 6 0 3 0;
#X connect 7 0 1 1;
#X connect 7 0 4 0;
